<svg width="1846" height="696" viewBox="0 0 1846 696" fill="none" xmlns="http://www.w3.org/2000/svg">
<path d="M1771.18 74.36C1730.28 74.36 1697 41.08 1697 0.18C1697 -40.72 1730.28 -74 1771.18 -74C1812.08 -74 1845.36 -40.72 1845.36 0.18C1845.35 41.08 1812.08 74.36 1771.18 74.36ZM1771.18 -70.81C1732.03 -70.81 1700.19 -38.96 1700.19 0.18C1700.19 39.33 1732.04 71.17 1771.18 71.17C1810.32 71.17 1842.17 39.32 1842.17 0.18C1842.17 -38.96 1810.32 -70.81 1771.18 -70.81Z" fill="#128C76"/>
<path d="M1771.18 63.99C1736 63.99 1707.37 35.37 1707.37 0.179993C1707.37 -35 1735.99 -63.63 1771.18 -63.63C1806.36 -63.63 1834.99 -35.01 1834.99 0.179993C1834.98 35.37 1806.36 63.99 1771.18 63.99ZM1771.18 -60.44C1737.75 -60.44 1710.56 -33.24 1710.56 0.179993C1710.56 33.61 1737.76 60.8 1771.18 60.8C1804.6 60.8 1831.8 33.6 1831.8 0.179993C1831.8 -33.24 1804.6 -60.44 1771.18 -60.44Z" fill="#128C76"/>
<path d="M1771.18 53.62C1741.71 53.62 1717.74 29.65 1717.74 0.179993C1717.74 -29.29 1741.71 -53.26 1771.18 -53.26C1800.65 -53.26 1824.62 -29.29 1824.62 0.179993C1824.61 29.65 1800.64 53.62 1771.18 53.62ZM1771.18 -50.07C1743.47 -50.07 1720.93 -27.53 1720.93 0.179993C1720.93 27.89 1743.47 50.44 1771.18 50.44C1798.89 50.44 1821.43 27.9 1821.43 0.179993C1821.43 -27.53 1798.89 -50.07 1771.18 -50.07Z" fill="#128C76"/>
<path d="M1771.18 43.25C1747.43 43.25 1728.11 23.93 1728.11 0.179985C1728.11 -23.57 1747.43 -42.89 1771.18 -42.89C1794.93 -42.89 1814.25 -23.57 1814.25 0.179985C1814.25 23.93 1794.92 43.25 1771.18 43.25ZM1771.18 -39.7C1749.19 -39.7 1731.29 -21.81 1731.29 0.189987C1731.29 22.18 1749.18 40.08 1771.18 40.08C1793.18 40.08 1811.07 22.19 1811.07 0.189987C1811.06 -21.81 1793.17 -39.7 1771.18 -39.7Z" fill="#128C76"/>
<path d="M440.4 425.9C370.29 418.95 303.46 452.25 236.7 474.79C213.76 482.54 189.42 489.14 165.55 485.05C127.38 478.51 98.77 446.05 80.82 411.74C62.87 377.43 52.21 339.44 31.75 306.57C23.42 293.18 12.65 280.4 0 271V695.54H597.52C611.42 638.91 611.98 578.53 586.41 526.85C559.01 471.5 501.88 431.99 440.4 425.9Z" fill="#ACDBDF"/>
<path d="M1737.38 489.29C1737.38 488.357 1736.62 487.6 1735.69 487.6C1734.76 487.6 1734 488.357 1734 489.29C1734 490.223 1734.76 490.98 1735.69 490.98C1736.62 490.98 1737.38 490.223 1737.38 489.29Z" fill="#333333"/>
<path d="M1737.38 474.09C1737.38 473.156 1736.62 472.4 1735.69 472.4C1734.76 472.4 1734 473.156 1734 474.09C1734 475.023 1734.76 475.78 1735.69 475.78C1736.62 475.78 1737.38 475.023 1737.38 474.09Z" fill="#333333"/>
<path d="M1737.38 458.89C1737.38 457.957 1736.62 457.2 1735.69 457.2C1734.76 457.2 1734 457.957 1734 458.89C1734 459.823 1734.76 460.58 1735.69 460.58C1736.62 460.58 1737.38 459.823 1737.38 458.89Z" fill="#333333"/>
<path d="M1737.38 443.69C1737.38 442.757 1736.62 442 1735.69 442C1734.76 442 1734 442.757 1734 443.69C1734 444.623 1734.76 445.38 1735.69 445.38C1736.62 445.38 1737.38 444.623 1737.38 443.69Z" fill="#333333"/>
<path d="M1750.89 489.29C1750.89 488.357 1750.13 487.6 1749.2 487.6C1748.27 487.6 1747.51 488.357 1747.51 489.29C1747.51 490.223 1748.27 490.98 1749.2 490.98C1750.13 490.98 1750.89 490.223 1750.89 489.29Z" fill="#333333"/>
<path d="M1750.89 474.09C1750.89 473.156 1750.13 472.4 1749.2 472.4C1748.27 472.4 1747.51 473.156 1747.51 474.09C1747.51 475.023 1748.27 475.78 1749.2 475.78C1750.13 475.78 1750.89 475.023 1750.89 474.09Z" fill="#333333"/>
<path d="M1750.89 458.89C1750.89 457.957 1750.13 457.2 1749.2 457.2C1748.27 457.2 1747.51 457.957 1747.51 458.89C1747.51 459.823 1748.27 460.58 1749.2 460.58C1750.13 460.58 1750.89 459.823 1750.89 458.89Z" fill="#333333"/>
<path d="M1750.89 443.69C1750.89 442.757 1750.13 442 1749.2 442C1748.27 442 1747.51 442.757 1747.51 443.69C1747.51 444.623 1748.27 445.38 1749.2 445.38C1750.13 445.38 1750.89 444.623 1750.89 443.69Z" fill="#333333"/>
<path d="M1764.4 489.29C1764.4 488.357 1763.64 487.6 1762.71 487.6C1761.78 487.6 1761.02 488.357 1761.02 489.29C1761.02 490.223 1761.78 490.98 1762.71 490.98C1763.64 490.98 1764.4 490.223 1764.4 489.29Z" fill="#333333"/>
<path d="M1764.4 474.09C1764.4 473.156 1763.64 472.4 1762.71 472.4C1761.78 472.4 1761.02 473.156 1761.02 474.09C1761.02 475.023 1761.78 475.78 1762.71 475.78C1763.64 475.78 1764.4 475.023 1764.4 474.09Z" fill="#333333"/>
<path d="M1764.4 458.89C1764.4 457.957 1763.64 457.2 1762.71 457.2C1761.78 457.2 1761.02 457.957 1761.02 458.89C1761.02 459.823 1761.78 460.58 1762.71 460.58C1763.64 460.58 1764.4 459.823 1764.4 458.89Z" fill="#333333"/>
<path d="M1764.4 443.69C1764.4 442.757 1763.64 442 1762.71 442C1761.78 442 1761.02 442.757 1761.02 443.69C1761.02 444.623 1761.78 445.38 1762.71 445.38C1763.64 445.38 1764.4 444.623 1764.4 443.69Z" fill="#333333"/>
</svg>
