<svg width="578" height="365" viewBox="0 0 578 365" fill="none" xmlns="http://www.w3.org/2000/svg">
<g filter="url(#filter0_d_5_5513)">
<rect x="104.5" y="1" width="117" height="297" stroke="#ECECEC"/>
<rect x="221.5" y="1" width="117" height="297" stroke="#ECECEC"/>
<rect x="338.5" y="1" width="117" height="297" stroke="#ECECEC"/>
<rect x="455.5" y="1" width="117" height="297" stroke="#ECECEC"/>
<rect x="104.5" y="76" width="469" height="74.25" stroke="#ECECEC"/>
<rect x="104.5" y="151" width="469" height="74.25" stroke="#ECECEC"/>
<g opacity="0.24" clip-path="url(#clip0_5_5513)">
<path d="M555.964 96.7596C564.982 96.7596 564.982 56.5254 574 56.5254V340.5H-57.2536V313.737C-47.4842 313.737 -48.2357 328.538 -39.2178 328.538C-30.1999 328.538 -30.1999 286.507 -21.1819 286.507C-12.1641 286.507 -13.6671 299.44 -3.14612 299.44C7.37476 299.44 4.36877 323.652 14.8896 323.652C25.4106 323.652 23.1561 314.456 32.9255 314.456C42.6949 314.456 40.8162 270.629 50.9613 270.629C61.1064 270.629 58.4762 284.927 68.9971 284.927C79.518 284.927 77.6393 304.613 87.0329 304.613C96.4266 304.613 94.9236 239.232 105.069 239.232C115.214 239.232 114.087 261.864 123.105 261.864C132.122 261.864 130.62 230.179 141.14 230.179C151.661 230.179 149.407 250.44 159.176 250.44C168.946 250.44 167.443 167.601 177.212 167.601C186.981 167.601 185.103 190.663 195.248 190.663C205.393 190.663 202.763 205.895 213.284 205.895C223.805 205.895 221.174 166.379 231.319 166.379C241.465 166.379 238.834 185.778 249.355 185.778C259.876 185.778 257.997 153.806 267.391 153.806C276.785 153.806 275.658 100.352 285.427 100.352C295.196 100.352 293.693 189.801 303.463 189.801C313.232 189.801 312.105 127.151 321.499 127.151C330.892 127.151 329.013 154.596 339.534 154.596C350.055 154.596 347.801 179.24 357.57 179.24C367.34 179.24 366.212 138.431 375.606 138.431C385 138.431 384.248 177.228 393.642 177.228C403.035 177.228 401.908 159.985 411.678 159.985C421.447 159.985 419.944 124.421 429.713 124.421C439.483 124.421 437.98 138.646 447.749 138.646C457.519 138.646 456.767 86.7011 465.785 86.7011C474.803 86.7011 473.3 157.901 483.821 157.901C494.342 157.901 491.712 109.548 501.857 109.548C512.002 109.548 510.499 129.45 519.893 129.45C529.286 129.45 528.535 79.8756 537.928 79.8756C547.322 79.8756 546.946 96.7596 555.964 96.7596Z" fill="url(#paint0_linear_5_5513)"/>
</g>
<g clip-path="url(#clip1_5_5513)">
<path d="M574 56.5254C564.982 56.5254 564.982 96.7596 555.964 96.7596C546.946 96.7596 547.322 79.8756 537.928 79.8756C528.535 79.8756 529.286 129.45 519.893 129.45C510.499 129.45 512.002 109.548 501.857 109.548C491.712 109.548 494.342 157.901 483.821 157.901C473.3 157.901 474.803 86.7011 465.785 86.7011C456.767 86.7011 457.519 138.646 447.749 138.646C437.98 138.646 439.483 124.421 429.713 124.421C419.944 124.421 421.447 159.985 411.678 159.985C401.908 159.985 403.035 177.228 393.642 177.228C384.248 177.228 385 138.431 375.606 138.431C366.212 138.431 367.34 179.24 357.57 179.24C347.801 179.24 350.055 154.596 339.534 154.596C329.013 154.596 330.892 127.151 321.499 127.151C312.105 127.151 313.232 189.801 303.463 189.801C293.693 189.801 295.196 100.352 285.427 100.352C275.658 100.352 276.785 153.806 267.391 153.806C257.997 153.806 259.876 185.778 249.355 185.778C238.834 185.778 241.465 166.379 231.319 166.379C221.174 166.379 223.805 205.895 213.284 205.895C202.763 205.895 205.393 190.663 195.248 190.663C185.103 190.663 186.981 167.601 177.212 167.601C167.443 167.601 168.946 250.44 159.176 250.44C149.407 250.44 151.661 230.179 141.14 230.179C130.619 230.179 132.122 261.864 123.105 261.864C114.087 261.864 115.214 239.232 105.069 239.232C94.9236 239.232 96.4266 304.613 87.0329 304.613C77.6393 304.613 79.518 284.927 68.9971 284.927C58.4762 284.927 61.1065 270.629 50.9613 270.629C40.8162 270.629 42.6949 314.456 32.9255 314.456C23.1561 314.456 25.4105 323.652 14.8896 323.652C4.36876 323.652 7.37477 299.44 -3.14612 299.44C-13.667 299.44 -12.164 286.507 -21.1819 286.507C-30.1999 286.507 -30.1999 328.538 -39.2178 328.538C-48.2357 328.538 -47.4842 313.737 -57.2536 313.737" stroke="#128C76" stroke-width="2"/>
</g>
<rect x="285" y="77.491" width="6" height="6" rx="0.751492" transform="rotate(45 285 77.491)" fill="#F56B8D"/>
<rect x="243" y="42" width="83" height="40" rx="2.25448" fill="#F56B8D"/>
<path d="M265.89 58.968H264.654C264.318 58.968 264.066 58.872 263.898 58.68C263.73 58.496 263.646 58.264 263.646 57.984V57.132C263.166 57.084 262.73 56.956 262.338 56.748C261.946 56.54 261.614 56.256 261.342 55.896C261.07 55.528 260.858 55.088 260.706 54.576C260.562 54.056 260.49 53.468 260.49 52.812C260.49 52.108 260.574 51.488 260.742 50.952C260.91 50.416 261.146 49.964 261.45 49.596C261.762 49.228 262.134 48.952 262.566 48.768C263.006 48.576 263.498 48.48 264.042 48.48C264.578 48.48 265.066 48.576 265.506 48.768C265.946 48.952 266.318 49.228 266.622 49.596C266.934 49.964 267.174 50.416 267.342 50.952C267.51 51.488 267.594 52.108 267.594 52.812C267.594 54.1 267.326 55.108 266.79 55.836C266.254 56.556 265.526 56.98 264.606 57.108V58.128H265.89V58.968ZM264.042 56.244C264.402 56.244 264.734 56.18 265.038 56.052C265.342 55.924 265.602 55.74 265.818 55.5C266.042 55.26 266.214 54.972 266.334 54.636C266.454 54.3 266.514 53.924 266.514 53.508V52.116C266.514 51.7 266.454 51.324 266.334 50.988C266.214 50.652 266.042 50.364 265.818 50.124C265.602 49.884 265.342 49.7 265.038 49.572C264.734 49.444 264.402 49.38 264.042 49.38C263.682 49.38 263.35 49.444 263.046 49.572C262.742 49.7 262.478 49.884 262.254 50.124C262.038 50.364 261.87 50.652 261.75 50.988C261.63 51.324 261.57 51.7 261.57 52.116V53.508C261.57 53.924 261.63 54.3 261.75 54.636C261.87 54.972 262.038 55.26 262.254 55.5C262.478 55.74 262.742 55.924 263.046 56.052C263.35 56.18 263.682 56.244 264.042 56.244ZM274.986 57H269.49V55.968L272.226 53.448C272.618 53.088 272.946 52.708 273.21 52.308C273.474 51.9 273.606 51.492 273.606 51.084V50.94C273.606 50.476 273.478 50.1 273.222 49.812C272.966 49.524 272.578 49.38 272.058 49.38C271.802 49.38 271.578 49.416 271.386 49.488C271.194 49.56 271.026 49.66 270.882 49.788C270.746 49.916 270.63 50.068 270.534 50.244C270.446 50.412 270.374 50.596 270.318 50.796L269.418 50.448C269.498 50.2 269.606 49.96 269.742 49.728C269.886 49.488 270.062 49.276 270.27 49.092C270.486 48.908 270.742 48.76 271.038 48.648C271.342 48.536 271.698 48.48 272.106 48.48C272.514 48.48 272.878 48.54 273.198 48.66C273.518 48.78 273.786 48.948 274.002 49.164C274.218 49.38 274.382 49.636 274.494 49.932C274.614 50.228 274.674 50.556 274.674 50.916C274.674 51.244 274.626 51.548 274.53 51.828C274.442 52.108 274.318 52.376 274.158 52.632C273.998 52.88 273.802 53.124 273.57 53.364C273.346 53.604 273.102 53.844 272.838 54.084L270.582 56.112H274.986V57ZM285.619 57H280.123V55.968L282.859 53.448C283.251 53.088 283.579 52.708 283.843 52.308C284.107 51.9 284.239 51.492 284.239 51.084V50.94C284.239 50.476 284.111 50.1 283.855 49.812C283.599 49.524 283.211 49.38 282.691 49.38C282.435 49.38 282.211 49.416 282.019 49.488C281.827 49.56 281.659 49.66 281.515 49.788C281.379 49.916 281.263 50.068 281.167 50.244C281.079 50.412 281.007 50.596 280.951 50.796L280.051 50.448C280.131 50.2 280.239 49.96 280.375 49.728C280.519 49.488 280.695 49.276 280.903 49.092C281.119 48.908 281.375 48.76 281.671 48.648C281.975 48.536 282.331 48.48 282.739 48.48C283.147 48.48 283.511 48.54 283.831 48.66C284.151 48.78 284.419 48.948 284.635 49.164C284.851 49.38 285.015 49.636 285.127 49.932C285.247 50.228 285.307 50.556 285.307 50.916C285.307 51.244 285.259 51.548 285.163 51.828C285.075 52.108 284.951 52.376 284.791 52.632C284.631 52.88 284.435 53.124 284.203 53.364C283.979 53.604 283.735 53.844 283.471 54.084L281.215 56.112H285.619V57ZM290.319 57.144C289.319 57.144 288.587 56.764 288.123 56.004C287.667 55.244 287.439 54.18 287.439 52.812C287.439 51.444 287.667 50.38 288.123 49.62C288.587 48.86 289.319 48.48 290.319 48.48C291.319 48.48 292.047 48.86 292.503 49.62C292.967 50.38 293.199 51.444 293.199 52.812C293.199 54.18 292.967 55.244 292.503 56.004C292.047 56.764 291.319 57.144 290.319 57.144ZM290.319 56.268C290.647 56.268 290.927 56.2 291.159 56.064C291.391 55.928 291.579 55.736 291.723 55.488C291.867 55.24 291.971 54.948 292.035 54.612C292.107 54.276 292.143 53.904 292.143 53.496V52.128C292.143 51.72 292.107 51.348 292.035 51.012C291.971 50.676 291.867 50.384 291.723 50.136C291.579 49.888 291.391 49.696 291.159 49.56C290.927 49.424 290.647 49.356 290.319 49.356C289.991 49.356 289.711 49.424 289.479 49.56C289.247 49.696 289.059 49.888 288.915 50.136C288.771 50.384 288.663 50.676 288.591 51.012C288.527 51.348 288.495 51.72 288.495 52.128V53.496C288.495 53.904 288.527 54.276 288.591 54.612C288.663 54.948 288.771 55.24 288.915 55.488C289.059 55.736 289.247 55.928 289.479 56.064C289.711 56.2 289.991 56.268 290.319 56.268ZM295.271 57V56.112H297.611V49.368H297.527L295.415 51.336L294.827 50.7L297.047 48.624H298.619V56.112H300.779V57H295.271ZM303.81 57L307.014 49.488H303.438V51.048H302.538V48.624H308.034V49.512L304.89 57H303.81ZM254.198 73.984V73C253.59 72.96 253.074 72.812 252.65 72.556C252.234 72.292 251.878 71.964 251.582 71.572L252.29 70.936C252.546 71.28 252.826 71.556 253.13 71.764C253.442 71.964 253.802 72.092 254.21 72.148V69.064C253.386 68.88 252.782 68.612 252.398 68.26C252.022 67.9 251.834 67.408 251.834 66.784C251.834 66.464 251.89 66.18 252.002 65.932C252.122 65.676 252.286 65.456 252.494 65.272C252.702 65.088 252.95 64.944 253.238 64.84C253.526 64.728 253.846 64.656 254.198 64.624V63.64H254.942V64.612C255.486 64.66 255.954 64.8 256.346 65.032C256.746 65.256 257.09 65.568 257.378 65.968L256.646 66.52C256.446 66.24 256.206 66.012 255.926 65.836C255.646 65.652 255.314 65.532 254.93 65.476V68.284L255.038 68.308C255.87 68.492 256.474 68.764 256.85 69.124C257.234 69.476 257.426 69.968 257.426 70.6C257.426 71.288 257.202 71.844 256.754 72.268C256.314 72.684 255.71 72.928 254.942 73V73.984H254.198ZM256.478 70.66C256.478 70.252 256.358 69.94 256.118 69.724C255.886 69.508 255.49 69.332 254.93 69.196V72.148C255.41 72.084 255.786 71.924 256.058 71.668C256.338 71.404 256.478 71.068 256.478 70.66ZM252.782 66.712C252.782 67.12 252.898 67.428 253.13 67.636C253.37 67.836 253.73 68 254.21 68.128V65.476C253.778 65.532 253.43 65.664 253.166 65.872C252.91 66.08 252.782 66.36 252.782 66.712ZM264.406 65.512H260.734L260.494 68.704H260.578C260.778 68.424 261.002 68.2 261.25 68.032C261.506 67.864 261.854 67.78 262.294 67.78C262.654 67.78 262.986 67.84 263.29 67.96C263.594 68.08 263.858 68.252 264.082 68.476C264.306 68.692 264.478 68.96 264.598 69.28C264.726 69.6 264.79 69.964 264.79 70.372C264.79 70.78 264.726 71.156 264.598 71.5C264.47 71.836 264.282 72.128 264.034 72.376C263.794 72.616 263.498 72.804 263.146 72.94C262.802 73.076 262.41 73.144 261.97 73.144C261.618 73.144 261.306 73.104 261.034 73.024C260.77 72.944 260.534 72.836 260.326 72.7C260.118 72.564 259.934 72.412 259.774 72.244C259.622 72.076 259.482 71.9 259.354 71.716L260.11 71.14C260.214 71.308 260.322 71.46 260.434 71.596C260.554 71.732 260.682 71.848 260.818 71.944C260.962 72.04 261.126 72.116 261.31 72.172C261.494 72.22 261.714 72.244 261.97 72.244C262.546 72.244 262.982 72.092 263.278 71.788C263.574 71.484 263.722 71.056 263.722 70.504V70.384C263.722 69.832 263.574 69.404 263.278 69.1C262.982 68.796 262.546 68.644 261.97 68.644C261.586 68.644 261.282 68.716 261.058 68.86C260.842 68.996 260.646 69.16 260.47 69.352L259.618 69.232L259.918 64.624H264.406V65.512ZM267.558 71.596C267.814 71.596 267.998 71.664 268.11 71.8C268.23 71.928 268.29 72.096 268.29 72.304V72.472C268.29 72.8 268.194 73.16 268.002 73.552C267.81 73.952 267.542 74.3 267.198 74.596H266.394C266.634 74.34 266.826 74.096 266.97 73.864C267.122 73.64 267.23 73.388 267.294 73.108C267.134 73.068 267.014 72.992 266.934 72.88C266.862 72.768 266.826 72.632 266.826 72.472V72.304C266.826 72.096 266.882 71.928 266.994 71.8C267.114 71.664 267.302 71.596 267.558 71.596ZM273.996 73V71.356H269.952V70.468L273.456 64.624H274.956V70.516H276.168V71.356H274.956V73H273.996ZM270.9 70.516H273.996V65.404H273.936L270.9 70.516ZM283.388 67.696C283.388 68.32 283.296 68.908 283.112 69.46C282.928 70.004 282.688 70.504 282.392 70.96C282.104 71.408 281.784 71.808 281.432 72.16C281.08 72.504 280.736 72.784 280.4 73H279.104C279.552 72.672 279.952 72.352 280.304 72.04C280.656 71.728 280.964 71.404 281.228 71.068C281.492 70.724 281.716 70.36 281.9 69.976C282.084 69.584 282.232 69.144 282.344 68.656L282.284 68.632C282.084 68.976 281.824 69.264 281.504 69.496C281.192 69.72 280.78 69.832 280.268 69.832C279.908 69.832 279.576 69.772 279.272 69.652C278.968 69.532 278.708 69.36 278.492 69.136C278.276 68.912 278.104 68.644 277.976 68.332C277.856 68.012 277.796 67.652 277.796 67.252C277.796 66.844 277.86 66.472 277.988 66.136C278.124 65.792 278.312 65.5 278.552 65.26C278.8 65.012 279.092 64.82 279.428 64.684C279.772 64.548 280.156 64.48 280.58 64.48C281.012 64.48 281.4 64.556 281.744 64.708C282.096 64.852 282.392 65.064 282.632 65.344C282.88 65.616 283.068 65.952 283.196 66.352C283.324 66.752 283.388 67.2 283.388 67.696ZM280.592 68.98C281.144 68.98 281.572 68.828 281.876 68.524C282.188 68.22 282.344 67.784 282.344 67.216V67.12C282.344 66.552 282.188 66.116 281.876 65.812C281.572 65.508 281.144 65.356 280.592 65.356C280.04 65.356 279.608 65.508 279.296 65.812C278.992 66.116 278.84 66.552 278.84 67.12V67.216C278.84 67.784 278.992 68.22 279.296 68.524C279.608 68.828 280.04 68.98 280.592 68.98ZM290.884 73H285.388V71.968L288.124 69.448C288.516 69.088 288.844 68.708 289.108 68.308C289.372 67.9 289.504 67.492 289.504 67.084V66.94C289.504 66.476 289.376 66.1 289.12 65.812C288.864 65.524 288.476 65.38 287.956 65.38C287.7 65.38 287.476 65.416 287.284 65.488C287.092 65.56 286.924 65.66 286.78 65.788C286.644 65.916 286.528 66.068 286.432 66.244C286.344 66.412 286.272 66.596 286.216 66.796L285.316 66.448C285.396 66.2 285.504 65.96 285.64 65.728C285.784 65.488 285.96 65.276 286.168 65.092C286.384 64.908 286.64 64.76 286.936 64.648C287.24 64.536 287.596 64.48 288.004 64.48C288.412 64.48 288.776 64.54 289.096 64.66C289.416 64.78 289.684 64.948 289.9 65.164C290.116 65.38 290.28 65.636 290.392 65.932C290.512 66.228 290.572 66.556 290.572 66.916C290.572 67.244 290.524 67.548 290.428 67.828C290.34 68.108 290.216 68.376 290.056 68.632C289.896 68.88 289.7 69.124 289.468 69.364C289.244 69.604 289 69.844 288.736 70.084L286.48 72.112H290.884V73ZM293.616 71.596C293.872 71.596 294.056 71.664 294.168 71.8C294.288 71.928 294.348 72.096 294.348 72.304V72.472C294.348 72.8 294.252 73.16 294.06 73.552C293.868 73.952 293.6 74.3 293.256 74.596H292.452C292.692 74.34 292.884 74.096 293.028 73.864C293.18 73.64 293.288 73.388 293.352 73.108C293.192 73.068 293.072 72.992 292.992 72.88C292.92 72.768 292.884 72.632 292.884 72.472V72.304C292.884 72.096 292.94 71.928 293.052 71.8C293.172 71.664 293.36 71.596 293.616 71.596ZM299.154 73.144C298.674 73.144 298.254 73.084 297.894 72.964C297.534 72.836 297.23 72.664 296.982 72.448C296.742 72.232 296.558 71.976 296.43 71.68C296.31 71.384 296.25 71.064 296.25 70.72C296.25 70.144 296.406 69.688 296.718 69.352C297.03 69.016 297.438 68.78 297.942 68.644V68.548C297.502 68.396 297.15 68.152 296.886 67.816C296.63 67.472 296.502 67.06 296.502 66.58C296.502 65.94 296.734 65.432 297.198 65.056C297.662 64.672 298.314 64.48 299.154 64.48C299.994 64.48 300.646 64.672 301.11 65.056C301.574 65.432 301.806 65.94 301.806 66.58C301.806 67.06 301.674 67.472 301.41 67.816C301.154 68.152 300.806 68.396 300.366 68.548V68.644C300.87 68.78 301.278 69.016 301.59 69.352C301.902 69.688 302.058 70.144 302.058 70.72C302.058 71.064 301.994 71.384 301.866 71.68C301.746 71.976 301.562 72.232 301.314 72.448C301.074 72.664 300.774 72.836 300.414 72.964C300.054 73.084 299.634 73.144 299.154 73.144ZM299.154 72.268C299.738 72.268 300.19 72.14 300.51 71.884C300.83 71.62 300.99 71.248 300.99 70.768V70.516C300.99 70.036 300.83 69.668 300.51 69.412C300.19 69.148 299.738 69.016 299.154 69.016C298.57 69.016 298.118 69.148 297.798 69.412C297.478 69.668 297.318 70.036 297.318 70.516V70.768C297.318 71.248 297.478 71.62 297.798 71.884C298.118 72.14 298.57 72.268 299.154 72.268ZM299.154 68.176C299.682 68.176 300.082 68.064 300.354 67.84C300.626 67.616 300.762 67.288 300.762 66.856V66.676C300.762 66.244 300.626 65.916 300.354 65.692C300.082 65.468 299.682 65.356 299.154 65.356C298.626 65.356 298.226 65.468 297.954 65.692C297.682 65.916 297.546 66.244 297.546 66.676V66.856C297.546 67.288 297.682 67.616 297.954 67.84C298.226 68.064 298.626 68.176 299.154 68.176ZM307.55 73V71.356H303.506V70.468L307.01 64.624H308.51V70.516H309.722V71.356H308.51V73H307.55ZM304.454 70.516H307.55V65.404H307.49L304.454 70.516ZM314.146 73.144C313.146 73.144 312.414 72.764 311.95 72.004C311.494 71.244 311.266 70.18 311.266 68.812C311.266 67.444 311.494 66.38 311.95 65.62C312.414 64.86 313.146 64.48 314.146 64.48C315.146 64.48 315.874 64.86 316.33 65.62C316.794 66.38 317.026 67.444 317.026 68.812C317.026 70.18 316.794 71.244 316.33 72.004C315.874 72.764 315.146 73.144 314.146 73.144ZM314.146 72.268C314.474 72.268 314.754 72.2 314.986 72.064C315.218 71.928 315.406 71.736 315.55 71.488C315.694 71.24 315.798 70.948 315.862 70.612C315.934 70.276 315.97 69.904 315.97 69.496V68.128C315.97 67.72 315.934 67.348 315.862 67.012C315.798 66.676 315.694 66.384 315.55 66.136C315.406 65.888 315.218 65.696 314.986 65.56C314.754 65.424 314.474 65.356 314.146 65.356C313.818 65.356 313.538 65.424 313.306 65.56C313.074 65.696 312.886 65.888 312.742 66.136C312.598 66.384 312.49 66.676 312.418 67.012C312.354 67.348 312.322 67.72 312.322 68.128V69.496C312.322 69.904 312.354 70.276 312.418 70.612C312.49 70.948 312.598 71.24 312.742 71.488C312.886 71.736 313.074 71.928 313.306 72.064C313.538 72.2 313.818 72.268 314.146 72.268Z" fill="white"/>
<circle cx="285" cy="102" r="3.5" fill="white" stroke="#F56B8D"/>
<path d="M121.299 352.5H115.709V351.721L118.662 348.439C119.1 347.943 119.4 347.541 119.564 347.232C119.732 346.92 119.816 346.598 119.816 346.266C119.816 345.82 119.682 345.455 119.412 345.17C119.143 344.885 118.783 344.742 118.334 344.742C117.795 344.742 117.375 344.896 117.074 345.205C116.777 345.51 116.629 345.936 116.629 346.482H115.545C115.545 345.697 115.797 345.062 116.301 344.578C116.809 344.094 117.486 343.852 118.334 343.852C119.127 343.852 119.754 344.061 120.215 344.479C120.676 344.893 120.906 345.445 120.906 346.137C120.906 346.977 120.371 347.977 119.301 349.137L117.016 351.615H121.299V352.5ZM127.797 348.861C127.797 350.131 127.58 351.074 127.146 351.691C126.713 352.309 126.035 352.617 125.113 352.617C124.203 352.617 123.529 352.316 123.092 351.715C122.654 351.109 122.428 350.207 122.412 349.008V347.561C122.412 346.307 122.629 345.375 123.062 344.766C123.496 344.156 124.176 343.852 125.102 343.852C126.02 343.852 126.695 344.146 127.129 344.736C127.562 345.322 127.785 346.229 127.797 347.455V348.861ZM126.713 347.379C126.713 346.461 126.584 345.793 126.326 345.375C126.068 344.953 125.66 344.742 125.102 344.742C124.547 344.742 124.143 344.951 123.889 345.369C123.635 345.787 123.504 346.43 123.496 347.297V349.031C123.496 349.953 123.629 350.635 123.895 351.076C124.164 351.514 124.57 351.732 125.113 351.732C125.648 351.732 126.045 351.525 126.303 351.111C126.564 350.697 126.701 350.045 126.713 349.154V347.379ZM132.748 352.5H131.658V345.275L129.473 346.078V345.094L132.578 343.928H132.748V352.5ZM136.422 348.223L136.855 343.969H141.227V344.971H137.775L137.518 347.297C137.936 347.051 138.41 346.928 138.941 346.928C139.719 346.928 140.336 347.186 140.793 347.701C141.25 348.213 141.479 348.906 141.479 349.781C141.479 350.66 141.24 351.354 140.764 351.861C140.291 352.365 139.629 352.617 138.777 352.617C138.023 352.617 137.408 352.408 136.932 351.99C136.455 351.572 136.184 350.994 136.117 350.256H137.143C137.209 350.744 137.383 351.113 137.664 351.363C137.945 351.609 138.316 351.732 138.777 351.732C139.281 351.732 139.676 351.561 139.961 351.217C140.25 350.873 140.395 350.398 140.395 349.793C140.395 349.223 140.238 348.766 139.926 348.422C139.617 348.074 139.205 347.9 138.689 347.9C138.217 347.9 137.846 348.004 137.576 348.211L137.289 348.445L136.422 348.223Z" fill="#333333"/>
<path d="M205.499 352.5H199.909V351.721L202.862 348.439C203.3 347.943 203.6 347.541 203.764 347.232C203.932 346.92 204.016 346.598 204.016 346.266C204.016 345.82 203.882 345.455 203.612 345.17C203.343 344.885 202.983 344.742 202.534 344.742C201.995 344.742 201.575 344.896 201.274 345.205C200.977 345.51 200.829 345.936 200.829 346.482H199.745C199.745 345.697 199.997 345.062 200.501 344.578C201.009 344.094 201.686 343.852 202.534 343.852C203.327 343.852 203.954 344.061 204.415 344.479C204.876 344.893 205.106 345.445 205.106 346.137C205.106 346.977 204.571 347.977 203.501 349.137L201.216 351.615H205.499V352.5ZM211.997 348.861C211.997 350.131 211.78 351.074 211.346 351.691C210.913 352.309 210.235 352.617 209.313 352.617C208.403 352.617 207.729 352.316 207.292 351.715C206.854 351.109 206.628 350.207 206.612 349.008V347.561C206.612 346.307 206.829 345.375 207.263 344.766C207.696 344.156 208.376 343.852 209.302 343.852C210.22 343.852 210.895 344.146 211.329 344.736C211.763 345.322 211.985 346.229 211.997 347.455V348.861ZM210.913 347.379C210.913 346.461 210.784 345.793 210.526 345.375C210.268 344.953 209.86 344.742 209.302 344.742C208.747 344.742 208.343 344.951 208.089 345.369C207.835 345.787 207.704 346.43 207.696 347.297V349.031C207.696 349.953 207.829 350.635 208.095 351.076C208.364 351.514 208.77 351.732 209.313 351.732C209.848 351.732 210.245 351.525 210.503 351.111C210.764 350.697 210.901 350.045 210.913 349.154V347.379ZM216.948 352.5H215.858V345.275L213.673 346.078V345.094L216.778 343.928H216.948V352.5ZM224.378 343.963V344.883H224.179C223.335 344.898 222.663 345.148 222.163 345.633C221.663 346.117 221.374 346.799 221.296 347.678C221.745 347.162 222.358 346.904 223.136 346.904C223.878 346.904 224.47 347.166 224.911 347.689C225.356 348.213 225.579 348.889 225.579 349.717C225.579 350.596 225.339 351.299 224.858 351.826C224.382 352.354 223.741 352.617 222.936 352.617C222.12 352.617 221.458 352.305 220.95 351.68C220.442 351.051 220.188 350.242 220.188 349.254V348.838C220.188 347.268 220.522 346.068 221.19 345.24C221.862 344.408 222.86 343.982 224.184 343.963H224.378ZM222.954 347.807C222.583 347.807 222.241 347.918 221.929 348.141C221.616 348.363 221.399 348.643 221.278 348.979V349.377C221.278 350.08 221.436 350.646 221.753 351.076C222.069 351.506 222.464 351.721 222.936 351.721C223.425 351.721 223.807 351.541 224.085 351.182C224.366 350.822 224.507 350.352 224.507 349.77C224.507 349.184 224.364 348.711 224.079 348.352C223.798 347.988 223.423 347.807 222.954 347.807Z" fill="#333333"/>
<path d="M289.699 352.5H284.109V351.721L287.062 348.439C287.5 347.943 287.8 347.541 287.964 347.232C288.132 346.92 288.216 346.598 288.216 346.266C288.216 345.82 288.082 345.455 287.812 345.17C287.543 344.885 287.183 344.742 286.734 344.742C286.195 344.742 285.775 344.896 285.474 345.205C285.177 345.51 285.029 345.936 285.029 346.482H283.945C283.945 345.697 284.197 345.062 284.701 344.578C285.209 344.094 285.886 343.852 286.734 343.852C287.527 343.852 288.154 344.061 288.615 344.479C289.076 344.893 289.306 345.445 289.306 346.137C289.306 346.977 288.771 347.977 287.701 349.137L285.416 351.615H289.699V352.5ZM296.197 348.861C296.197 350.131 295.98 351.074 295.547 351.691C295.113 352.309 294.435 352.617 293.513 352.617C292.603 352.617 291.929 352.316 291.492 351.715C291.054 351.109 290.828 350.207 290.812 349.008V347.561C290.812 346.307 291.029 345.375 291.463 344.766C291.896 344.156 292.576 343.852 293.502 343.852C294.42 343.852 295.095 344.146 295.529 344.736C295.963 345.322 296.185 346.229 296.197 347.455V348.861ZM295.113 347.379C295.113 346.461 294.984 345.793 294.726 345.375C294.468 344.953 294.06 344.742 293.502 344.742C292.947 344.742 292.543 344.951 292.289 345.369C292.035 345.787 291.904 346.43 291.896 347.297V349.031C291.896 349.953 292.029 350.635 292.295 351.076C292.564 351.514 292.97 351.732 293.513 351.732C294.048 351.732 294.445 351.525 294.703 351.111C294.964 350.697 295.101 350.045 295.113 349.154V347.379ZM301.148 352.5H300.058V345.275L297.873 346.078V345.094L300.978 343.928H301.148V352.5ZM309.832 344.578L306.298 352.5H305.162L308.683 344.859H304.066V343.969H309.832V344.578Z" fill="#333333"/>
<path d="M373.899 352.5H368.309V351.721L371.262 348.439C371.7 347.943 372 347.541 372.164 347.232C372.332 346.92 372.416 346.598 372.416 346.266C372.416 345.82 372.282 345.455 372.012 345.17C371.743 344.885 371.383 344.742 370.934 344.742C370.395 344.742 369.975 344.896 369.674 345.205C369.377 345.51 369.229 345.936 369.229 346.482H368.145C368.145 345.697 368.397 345.062 368.901 344.578C369.409 344.094 370.086 343.852 370.934 343.852C371.727 343.852 372.354 344.061 372.815 344.479C373.276 344.893 373.506 345.445 373.506 346.137C373.506 346.977 372.971 347.977 371.901 349.137L369.616 351.615H373.899V352.5ZM380.397 348.861C380.397 350.131 380.18 351.074 379.746 351.691C379.313 352.309 378.635 352.617 377.713 352.617C376.803 352.617 376.129 352.316 375.692 351.715C375.254 351.109 375.028 350.207 375.012 349.008V347.561C375.012 346.307 375.229 345.375 375.662 344.766C376.096 344.156 376.776 343.852 377.702 343.852C378.62 343.852 379.295 344.146 379.729 344.736C380.162 345.322 380.385 346.229 380.397 347.455V348.861ZM379.313 347.379C379.313 346.461 379.184 345.793 378.926 345.375C378.668 344.953 378.26 344.742 377.702 344.742C377.147 344.742 376.743 344.951 376.489 345.369C376.235 345.787 376.104 346.43 376.096 347.297V349.031C376.096 349.953 376.229 350.635 376.495 351.076C376.764 351.514 377.17 351.732 377.713 351.732C378.248 351.732 378.645 351.525 378.903 351.111C379.164 350.697 379.301 350.045 379.313 349.154V347.379ZM385.348 352.5H384.258V345.275L382.073 346.078V345.094L385.178 343.928H385.348V352.5ZM393.698 346.195C393.698 346.621 393.584 347 393.358 347.332C393.135 347.664 392.832 347.924 392.45 348.111C392.895 348.303 393.246 348.582 393.504 348.949C393.766 349.316 393.897 349.732 393.897 350.197C393.897 350.936 393.647 351.523 393.147 351.961C392.651 352.398 391.996 352.617 391.184 352.617C390.364 352.617 389.705 352.398 389.209 351.961C388.717 351.52 388.471 350.932 388.471 350.197C388.471 349.736 388.596 349.32 388.846 348.949C389.1 348.578 389.45 348.297 389.895 348.105C389.516 347.918 389.217 347.658 388.998 347.326C388.78 346.994 388.67 346.617 388.67 346.195C388.67 345.477 388.901 344.906 389.362 344.484C389.823 344.062 390.43 343.852 391.184 343.852C391.934 343.852 392.539 344.062 393 344.484C393.465 344.906 393.698 345.477 393.698 346.195ZM392.813 350.174C392.813 349.697 392.661 349.309 392.356 349.008C392.055 348.707 391.661 348.557 391.172 348.557C390.684 348.557 390.291 348.705 389.995 349.002C389.702 349.299 389.555 349.689 389.555 350.174C389.555 350.658 389.698 351.039 389.983 351.316C390.272 351.594 390.672 351.732 391.184 351.732C391.692 351.732 392.09 351.594 392.379 351.316C392.668 351.035 392.813 350.654 392.813 350.174ZM391.184 344.742C390.758 344.742 390.412 344.875 390.147 345.141C389.885 345.402 389.754 345.76 389.754 346.213C389.754 346.646 389.883 346.998 390.141 347.268C390.403 347.533 390.75 347.666 391.184 347.666C391.618 347.666 391.963 347.533 392.221 347.268C392.483 346.998 392.614 346.646 392.614 346.213C392.614 345.779 392.479 345.426 392.209 345.152C391.94 344.879 391.598 344.742 391.184 344.742Z" fill="#333333"/>
<path d="M458.099 352.5H452.509V351.721L455.462 348.439C455.9 347.943 456.2 347.541 456.364 347.232C456.532 346.92 456.616 346.598 456.616 346.266C456.616 345.82 456.482 345.455 456.212 345.17C455.943 344.885 455.583 344.742 455.134 344.742C454.595 344.742 454.175 344.896 453.874 345.205C453.577 345.51 453.429 345.936 453.429 346.482H452.345C452.345 345.697 452.597 345.062 453.101 344.578C453.609 344.094 454.286 343.852 455.134 343.852C455.927 343.852 456.554 344.061 457.015 344.479C457.476 344.893 457.706 345.445 457.706 346.137C457.706 346.977 457.171 347.977 456.101 349.137L453.816 351.615H458.099V352.5ZM464.597 348.861C464.597 350.131 464.38 351.074 463.946 351.691C463.513 352.309 462.835 352.617 461.913 352.617C461.003 352.617 460.329 352.316 459.892 351.715C459.454 351.109 459.228 350.207 459.212 349.008V347.561C459.212 346.307 459.429 345.375 459.862 344.766C460.296 344.156 460.976 343.852 461.902 343.852C462.82 343.852 463.495 344.146 463.929 344.736C464.362 345.322 464.585 346.229 464.597 347.455V348.861ZM463.513 347.379C463.513 346.461 463.384 345.793 463.126 345.375C462.868 344.953 462.46 344.742 461.902 344.742C461.347 344.742 460.943 344.951 460.689 345.369C460.435 345.787 460.304 346.43 460.296 347.297V349.031C460.296 349.953 460.429 350.635 460.695 351.076C460.964 351.514 461.37 351.732 461.913 351.732C462.448 351.732 462.845 351.525 463.103 351.111C463.364 350.697 463.501 350.045 463.513 349.154V347.379ZM469.548 352.5H468.458V345.275L466.273 346.078V345.094L469.378 343.928H469.548V352.5ZM476.878 348.75C476.652 349.02 476.38 349.236 476.064 349.4C475.751 349.564 475.407 349.646 475.032 349.646C474.54 349.646 474.111 349.525 473.743 349.283C473.38 349.041 473.099 348.701 472.9 348.264C472.7 347.822 472.601 347.336 472.601 346.805C472.601 346.234 472.708 345.721 472.923 345.264C473.142 344.807 473.45 344.457 473.849 344.215C474.247 343.973 474.712 343.852 475.243 343.852C476.087 343.852 476.751 344.168 477.236 344.801C477.724 345.43 477.968 346.289 477.968 347.379V347.695C477.968 349.355 477.64 350.568 476.984 351.334C476.327 352.096 475.337 352.486 474.013 352.506H473.802V351.592H474.03C474.925 351.576 475.612 351.344 476.093 350.895C476.573 350.441 476.835 349.727 476.878 348.75ZM475.208 348.75C475.571 348.75 475.905 348.639 476.21 348.416C476.519 348.193 476.743 347.918 476.884 347.59V347.156C476.884 346.445 476.73 345.867 476.421 345.422C476.112 344.977 475.722 344.754 475.249 344.754C474.773 344.754 474.39 344.938 474.101 345.305C473.812 345.668 473.667 346.148 473.667 346.746C473.667 347.328 473.806 347.809 474.083 348.188C474.364 348.562 474.739 348.75 475.208 348.75Z" fill="#333333"/>
<path d="M542.299 352.5H536.709V351.721L539.662 348.439C540.1 347.943 540.4 347.541 540.564 347.232C540.732 346.92 540.816 346.598 540.816 346.266C540.816 345.82 540.682 345.455 540.412 345.17C540.143 344.885 539.783 344.742 539.334 344.742C538.795 344.742 538.375 344.896 538.074 345.205C537.777 345.51 537.629 345.936 537.629 346.482H536.545C536.545 345.697 536.797 345.062 537.301 344.578C537.809 344.094 538.486 343.852 539.334 343.852C540.127 343.852 540.754 344.061 541.215 344.479C541.676 344.893 541.906 345.445 541.906 346.137C541.906 346.977 541.371 347.977 540.301 349.137L538.016 351.615H542.299V352.5ZM548.797 348.861C548.797 350.131 548.58 351.074 548.146 351.691C547.713 352.309 547.035 352.617 546.113 352.617C545.203 352.617 544.529 352.316 544.092 351.715C543.654 351.109 543.428 350.207 543.412 349.008V347.561C543.412 346.307 543.629 345.375 544.062 344.766C544.496 344.156 545.176 343.852 546.102 343.852C547.02 343.852 547.695 344.146 548.129 344.736C548.562 345.322 548.785 346.229 548.797 347.455V348.861ZM547.713 347.379C547.713 346.461 547.584 345.793 547.326 345.375C547.068 344.953 546.66 344.742 546.102 344.742C545.547 344.742 545.143 344.951 544.889 345.369C544.635 345.787 544.504 346.43 544.496 347.297V349.031C544.496 349.953 544.629 350.635 544.895 351.076C545.164 351.514 545.57 351.732 546.113 351.732C546.648 351.732 547.045 351.525 547.303 351.111C547.564 350.697 547.701 350.045 547.713 349.154V347.379ZM555.775 352.5H550.186V351.721L553.139 348.439C553.576 347.943 553.877 347.541 554.041 347.232C554.209 346.92 554.293 346.598 554.293 346.266C554.293 345.82 554.158 345.455 553.889 345.17C553.619 344.885 553.26 344.742 552.811 344.742C552.271 344.742 551.852 344.896 551.551 345.205C551.254 345.51 551.105 345.936 551.105 346.482H550.021C550.021 345.697 550.273 345.062 550.777 344.578C551.285 344.094 551.963 343.852 552.811 343.852C553.604 343.852 554.23 344.061 554.691 344.479C555.152 344.893 555.383 345.445 555.383 346.137C555.383 346.977 554.848 347.977 553.777 349.137L551.492 351.615H555.775V352.5ZM562.273 348.861C562.273 350.131 562.057 351.074 561.623 351.691C561.189 352.309 560.512 352.617 559.59 352.617C558.68 352.617 558.006 352.316 557.568 351.715C557.131 351.109 556.904 350.207 556.889 349.008V347.561C556.889 346.307 557.105 345.375 557.539 344.766C557.973 344.156 558.652 343.852 559.578 343.852C560.496 343.852 561.172 344.146 561.605 344.736C562.039 345.322 562.262 346.229 562.273 347.455V348.861ZM561.189 347.379C561.189 346.461 561.061 345.793 560.803 345.375C560.545 344.953 560.137 344.742 559.578 344.742C559.023 344.742 558.619 344.951 558.365 345.369C558.111 345.787 557.98 346.43 557.973 347.297V349.031C557.973 349.953 558.105 350.635 558.371 351.076C558.641 351.514 559.047 351.732 559.59 351.732C560.125 351.732 560.521 351.525 560.779 351.111C561.041 350.697 561.178 350.045 561.189 349.154V347.379Z" fill="#333333"/>
<path d="M55.0156 31.3027C55.0156 30.9434 54.8887 30.6406 54.6348 30.3945C54.3848 30.1484 53.9609 29.9258 53.3633 29.7266C52.5312 29.4727 51.9238 29.1426 51.541 28.7363C51.1621 28.3262 50.9727 27.8066 50.9727 27.1777C50.9727 26.5371 51.1582 26.0117 51.5293 25.6016C51.9043 25.1914 52.418 24.9473 53.0703 24.8691V23.5859H53.9434V24.875C54.5996 24.9648 55.1094 25.2402 55.4727 25.7012C55.8398 26.1621 56.0234 26.793 56.0234 27.5938H54.9453C54.9453 27.043 54.8145 26.6055 54.5527 26.2812C54.291 25.957 53.9375 25.7949 53.4922 25.7949C53.0273 25.7949 52.6719 25.916 52.4258 26.1582C52.1797 26.3965 52.0566 26.7305 52.0566 27.1602C52.0566 27.5586 52.1855 27.877 52.4434 28.1152C52.7051 28.3496 53.1328 28.5645 53.7266 28.7598C54.3242 28.9512 54.7891 29.1641 55.1211 29.3984C55.457 29.6289 55.7031 29.8984 55.8594 30.207C56.0195 30.5156 56.0996 30.877 56.0996 31.291C56.0996 31.9512 55.9004 32.4824 55.502 32.8848C55.1074 33.2871 54.5527 33.5254 53.8379 33.5996V34.7188H52.9707V33.5996C52.2441 33.5332 51.6738 33.2754 51.2598 32.8262C50.8496 32.373 50.6445 31.7598 50.6445 30.9863H51.7285C51.7285 31.5293 51.8711 31.9473 52.1562 32.2402C52.4414 32.5332 52.8457 32.6797 53.3691 32.6797C53.8809 32.6797 54.2832 32.5566 54.5762 32.3105C54.8691 32.0645 55.0156 31.7285 55.0156 31.3027ZM62.9551 25.5781L59.4219 33.5H58.2852L61.8066 25.8594H57.1895V24.9688H62.9551V25.5781ZM65.9199 24.9688L68.709 31.9297L71.498 24.9688H72.957V33.5H71.832V30.1777L71.9375 26.5918L69.1367 33.5H68.2754L65.4805 26.6094L65.5918 30.1777V33.5H64.4668V24.9688H65.9199Z" fill="#333333"/>
<path d="M55.0156 74.8027C55.0156 74.4434 54.8887 74.1406 54.6348 73.8945C54.3848 73.6484 53.9609 73.4258 53.3633 73.2266C52.5312 72.9727 51.9238 72.6426 51.541 72.2363C51.1621 71.8262 50.9727 71.3066 50.9727 70.6777C50.9727 70.0371 51.1582 69.5117 51.5293 69.1016C51.9043 68.6914 52.418 68.4473 53.0703 68.3691V67.0859H53.9434V68.375C54.5996 68.4648 55.1094 68.7402 55.4727 69.2012C55.8398 69.6621 56.0234 70.293 56.0234 71.0938H54.9453C54.9453 70.543 54.8145 70.1055 54.5527 69.7812C54.291 69.457 53.9375 69.2949 53.4922 69.2949C53.0273 69.2949 52.6719 69.416 52.4258 69.6582C52.1797 69.8965 52.0566 70.2305 52.0566 70.6602C52.0566 71.0586 52.1855 71.377 52.4434 71.6152C52.7051 71.8496 53.1328 72.0645 53.7266 72.2598C54.3242 72.4512 54.7891 72.6641 55.1211 72.8984C55.457 73.1289 55.7031 73.3984 55.8594 73.707C56.0195 74.0156 56.0996 74.377 56.0996 74.791C56.0996 75.4512 55.9004 75.9824 55.502 76.3848C55.1074 76.7871 54.5527 77.0254 53.8379 77.0996V78.2188H52.9707V77.0996C52.2441 77.0332 51.6738 76.7754 51.2598 76.3262C50.8496 75.873 50.6445 75.2598 50.6445 74.4863H51.7285C51.7285 75.0293 51.8711 75.4473 52.1562 75.7402C52.4414 76.0332 52.8457 76.1797 53.3691 76.1797C53.8809 76.1797 54.2832 76.0566 54.5762 75.8105C54.8691 75.5645 55.0156 75.2285 55.0156 74.8027ZM61.7012 68.4629V69.3828H61.502C60.6582 69.3984 59.9863 69.6484 59.4863 70.1328C58.9863 70.6172 58.6973 71.2988 58.6191 72.1777C59.0684 71.6621 59.6816 71.4043 60.459 71.4043C61.2012 71.4043 61.793 71.666 62.2344 72.1895C62.6797 72.7129 62.9023 73.3887 62.9023 74.2168C62.9023 75.0957 62.6621 75.7988 62.1816 76.3262C61.7051 76.8535 61.0645 77.1172 60.2598 77.1172C59.4434 77.1172 58.7812 76.8047 58.2734 76.1797C57.7656 75.5508 57.5117 74.7422 57.5117 73.7539V73.3379C57.5117 71.7676 57.8457 70.5684 58.5137 69.7402C59.1855 68.9082 60.1836 68.4824 61.5078 68.4629H61.7012ZM60.2773 72.3066C59.9062 72.3066 59.5645 72.418 59.252 72.6406C58.9395 72.8633 58.7227 73.1426 58.6016 73.4785V73.877C58.6016 74.5801 58.7598 75.1465 59.0762 75.5762C59.3926 76.0059 59.7871 76.2207 60.2598 76.2207C60.748 76.2207 61.1309 76.041 61.4082 75.6816C61.6895 75.3223 61.8301 74.8516 61.8301 74.2695C61.8301 73.6836 61.6875 73.2109 61.4023 72.8516C61.1211 72.4883 60.7461 72.3066 60.2773 72.3066ZM65.9199 68.4688L68.709 75.4297L71.498 68.4688H72.957V77H71.832V73.6777L71.9375 70.0918L69.1367 77H68.2754L65.4805 70.1094L65.5918 73.6777V77H64.4668V68.4688H65.9199Z" fill="#333333"/>
<path d="M55.0156 118.303C55.0156 117.943 54.8887 117.641 54.6348 117.395C54.3848 117.148 53.9609 116.926 53.3633 116.727C52.5312 116.473 51.9238 116.143 51.541 115.736C51.1621 115.326 50.9727 114.807 50.9727 114.178C50.9727 113.537 51.1582 113.012 51.5293 112.602C51.9043 112.191 52.418 111.947 53.0703 111.869V110.586H53.9434V111.875C54.5996 111.965 55.1094 112.24 55.4727 112.701C55.8398 113.162 56.0234 113.793 56.0234 114.594H54.9453C54.9453 114.043 54.8145 113.605 54.5527 113.281C54.291 112.957 53.9375 112.795 53.4922 112.795C53.0273 112.795 52.6719 112.916 52.4258 113.158C52.1797 113.396 52.0566 113.73 52.0566 114.16C52.0566 114.559 52.1855 114.877 52.4434 115.115C52.7051 115.35 53.1328 115.564 53.7266 115.76C54.3242 115.951 54.7891 116.164 55.1211 116.398C55.457 116.629 55.7031 116.898 55.8594 117.207C56.0195 117.516 56.0996 117.877 56.0996 118.291C56.0996 118.951 55.9004 119.482 55.502 119.885C55.1074 120.287 54.5527 120.525 53.8379 120.6V121.719H52.9707V120.6C52.2441 120.533 51.6738 120.275 51.2598 119.826C50.8496 119.373 50.6445 118.76 50.6445 117.986H51.7285C51.7285 118.529 51.8711 118.947 52.1562 119.24C52.4414 119.533 52.8457 119.68 53.3691 119.68C53.8809 119.68 54.2832 119.557 54.5762 119.311C54.8691 119.064 55.0156 118.729 55.0156 118.303ZM57.9453 116.223L58.3789 111.969H62.75V112.971H59.2988L59.041 115.297C59.459 115.051 59.9336 114.928 60.4648 114.928C61.2422 114.928 61.8594 115.186 62.3164 115.701C62.7734 116.213 63.002 116.906 63.002 117.781C63.002 118.66 62.7637 119.354 62.2871 119.861C61.8145 120.365 61.1523 120.617 60.3008 120.617C59.5469 120.617 58.9316 120.408 58.4551 119.99C57.9785 119.572 57.707 118.994 57.6406 118.256H58.666C58.7324 118.744 58.9062 119.113 59.1875 119.363C59.4688 119.609 59.8398 119.732 60.3008 119.732C60.8047 119.732 61.1992 119.561 61.4844 119.217C61.7734 118.873 61.918 118.398 61.918 117.793C61.918 117.223 61.7617 116.766 61.4492 116.422C61.1406 116.074 60.7285 115.9 60.2129 115.9C59.7402 115.9 59.3691 116.004 59.0996 116.211L58.8125 116.445L57.9453 116.223ZM65.9199 111.969L68.709 118.93L71.498 111.969H72.957V120.5H71.832V117.178L71.9375 113.592L69.1367 120.5H68.2754L65.4805 113.609L65.5918 117.178V120.5H64.4668V111.969H65.9199Z" fill="#333333"/>
<path d="M55.0156 161.803C55.0156 161.443 54.8887 161.141 54.6348 160.895C54.3848 160.648 53.9609 160.426 53.3633 160.227C52.5312 159.973 51.9238 159.643 51.541 159.236C51.1621 158.826 50.9727 158.307 50.9727 157.678C50.9727 157.037 51.1582 156.512 51.5293 156.102C51.9043 155.691 52.418 155.447 53.0703 155.369V154.086H53.9434V155.375C54.5996 155.465 55.1094 155.74 55.4727 156.201C55.8398 156.662 56.0234 157.293 56.0234 158.094H54.9453C54.9453 157.543 54.8145 157.105 54.5527 156.781C54.291 156.457 53.9375 156.295 53.4922 156.295C53.0273 156.295 52.6719 156.416 52.4258 156.658C52.1797 156.896 52.0566 157.23 52.0566 157.66C52.0566 158.059 52.1855 158.377 52.4434 158.615C52.7051 158.85 53.1328 159.064 53.7266 159.26C54.3242 159.451 54.7891 159.664 55.1211 159.898C55.457 160.129 55.7031 160.398 55.8594 160.707C56.0195 161.016 56.0996 161.377 56.0996 161.791C56.0996 162.451 55.9004 162.982 55.502 163.385C55.1074 163.787 54.5527 164.025 53.8379 164.1V165.219H52.9707V164.1C52.2441 164.033 51.6738 163.775 51.2598 163.326C50.8496 162.873 50.6445 162.26 50.6445 161.486H51.7285C51.7285 162.029 51.8711 162.447 52.1562 162.74C52.4414 163.033 52.8457 163.18 53.3691 163.18C53.8809 163.18 54.2832 163.057 54.5762 162.811C54.8691 162.564 55.0156 162.229 55.0156 161.803ZM62.0234 161.135H63.207V162.02H62.0234V164H60.9336V162.02H57.0488V161.381L60.8691 155.469H62.0234V161.135ZM58.2793 161.135H60.9336V156.951L60.8047 157.186L58.2793 161.135ZM65.9199 155.469L68.709 162.43L71.498 155.469H72.957V164H71.832V160.678L71.9375 157.092L69.1367 164H68.2754L65.4805 157.109L65.5918 160.678V164H64.4668V155.469H65.9199Z" fill="#333333"/>
<path d="M55.0156 205.303C55.0156 204.943 54.8887 204.641 54.6348 204.395C54.3848 204.148 53.9609 203.926 53.3633 203.727C52.5312 203.473 51.9238 203.143 51.541 202.736C51.1621 202.326 50.9727 201.807 50.9727 201.178C50.9727 200.537 51.1582 200.012 51.5293 199.602C51.9043 199.191 52.418 198.947 53.0703 198.869V197.586H53.9434V198.875C54.5996 198.965 55.1094 199.24 55.4727 199.701C55.8398 200.162 56.0234 200.793 56.0234 201.594H54.9453C54.9453 201.043 54.8145 200.605 54.5527 200.281C54.291 199.957 53.9375 199.795 53.4922 199.795C53.0273 199.795 52.6719 199.916 52.4258 200.158C52.1797 200.396 52.0566 200.73 52.0566 201.16C52.0566 201.559 52.1855 201.877 52.4434 202.115C52.7051 202.35 53.1328 202.564 53.7266 202.76C54.3242 202.951 54.7891 203.164 55.1211 203.398C55.457 203.629 55.7031 203.898 55.8594 204.207C56.0195 204.516 56.0996 204.877 56.0996 205.291C56.0996 205.951 55.9004 206.482 55.502 206.885C55.1074 207.287 54.5527 207.525 53.8379 207.6V208.719H52.9707V207.6C52.2441 207.533 51.6738 207.275 51.2598 206.826C50.8496 206.373 50.6445 205.76 50.6445 204.986H51.7285C51.7285 205.529 51.8711 205.947 52.1562 206.24C52.4414 206.533 52.8457 206.68 53.3691 206.68C53.8809 206.68 54.2832 206.557 54.5762 206.311C54.8691 206.064 55.0156 205.729 55.0156 205.303ZM59.0234 202.707H59.8379C60.3496 202.699 60.752 202.564 61.0449 202.303C61.3379 202.041 61.4844 201.688 61.4844 201.242C61.4844 200.242 60.9863 199.742 59.9902 199.742C59.5215 199.742 59.1465 199.877 58.8652 200.146C58.5879 200.412 58.4492 200.766 58.4492 201.207H57.3652C57.3652 200.531 57.6113 199.971 58.1035 199.525C58.5996 199.076 59.2285 198.852 59.9902 198.852C60.7949 198.852 61.4258 199.064 61.8828 199.49C62.3398 199.916 62.5684 200.508 62.5684 201.266C62.5684 201.637 62.4473 201.996 62.2051 202.344C61.9668 202.691 61.6406 202.951 61.2266 203.123C61.6953 203.271 62.0566 203.518 62.3105 203.861C62.5684 204.205 62.6973 204.625 62.6973 205.121C62.6973 205.887 62.4473 206.494 61.9473 206.943C61.4473 207.393 60.7969 207.617 59.9961 207.617C59.1953 207.617 58.543 207.4 58.0391 206.967C57.5391 206.533 57.2891 205.961 57.2891 205.25H58.3789C58.3789 205.699 58.5254 206.059 58.8184 206.328C59.1113 206.598 59.5039 206.732 59.9961 206.732C60.5195 206.732 60.9199 206.596 61.1973 206.322C61.4746 206.049 61.6133 205.656 61.6133 205.145C61.6133 204.648 61.4609 204.268 61.1562 204.002C60.8516 203.736 60.4121 203.6 59.8379 203.592H59.0234V202.707ZM65.9199 198.969L68.709 205.93L71.498 198.969H72.957V207.5H71.832V204.178L71.9375 200.592L69.1367 207.5H68.2754L65.4805 200.609L65.5918 204.178V207.5H64.4668V198.969H65.9199Z" fill="#333333"/>
<path d="M55.0156 248.803C55.0156 248.443 54.8887 248.141 54.6348 247.895C54.3848 247.648 53.9609 247.426 53.3633 247.227C52.5312 246.973 51.9238 246.643 51.541 246.236C51.1621 245.826 50.9727 245.307 50.9727 244.678C50.9727 244.037 51.1582 243.512 51.5293 243.102C51.9043 242.691 52.418 242.447 53.0703 242.369V241.086H53.9434V242.375C54.5996 242.465 55.1094 242.74 55.4727 243.201C55.8398 243.662 56.0234 244.293 56.0234 245.094H54.9453C54.9453 244.543 54.8145 244.105 54.5527 243.781C54.291 243.457 53.9375 243.295 53.4922 243.295C53.0273 243.295 52.6719 243.416 52.4258 243.658C52.1797 243.896 52.0566 244.23 52.0566 244.66C52.0566 245.059 52.1855 245.377 52.4434 245.615C52.7051 245.85 53.1328 246.064 53.7266 246.26C54.3242 246.451 54.7891 246.664 55.1211 246.898C55.457 247.129 55.7031 247.398 55.8594 247.707C56.0195 248.016 56.0996 248.377 56.0996 248.791C56.0996 249.451 55.9004 249.982 55.502 250.385C55.1074 250.787 54.5527 251.025 53.8379 251.1V252.219H52.9707V251.1C52.2441 251.033 51.6738 250.775 51.2598 250.326C50.8496 249.873 50.6445 249.26 50.6445 248.486H51.7285C51.7285 249.029 51.8711 249.447 52.1562 249.74C52.4414 250.033 52.8457 250.18 53.3691 250.18C53.8809 250.18 54.2832 250.057 54.5762 249.811C54.8691 249.564 55.0156 249.229 55.0156 248.803ZM63.0371 251H57.4473V250.221L60.4004 246.939C60.8379 246.443 61.1387 246.041 61.3027 245.732C61.4707 245.42 61.5547 245.098 61.5547 244.766C61.5547 244.32 61.4199 243.955 61.1504 243.67C60.8809 243.385 60.5215 243.242 60.0723 243.242C59.5332 243.242 59.1133 243.396 58.8125 243.705C58.5156 244.01 58.3672 244.436 58.3672 244.982H57.2832C57.2832 244.197 57.5352 243.562 58.0391 243.078C58.5469 242.594 59.2246 242.352 60.0723 242.352C60.8652 242.352 61.4922 242.561 61.9531 242.979C62.4141 243.393 62.6445 243.945 62.6445 244.637C62.6445 245.477 62.1094 246.477 61.0391 247.637L58.7539 250.115H63.0371V251ZM65.9199 242.469L68.709 249.43L71.498 242.469H72.957V251H71.832V247.678L71.9375 244.092L69.1367 251H68.2754L65.4805 244.109L65.5918 247.678V251H64.4668V242.469H65.9199Z" fill="#333333"/>
<path d="M55.0156 292.303C55.0156 291.943 54.8887 291.641 54.6348 291.395C54.3848 291.148 53.9609 290.926 53.3633 290.727C52.5312 290.473 51.9238 290.143 51.541 289.736C51.1621 289.326 50.9727 288.807 50.9727 288.178C50.9727 287.537 51.1582 287.012 51.5293 286.602C51.9043 286.191 52.418 285.947 53.0703 285.869V284.586H53.9434V285.875C54.5996 285.965 55.1094 286.24 55.4727 286.701C55.8398 287.162 56.0234 287.793 56.0234 288.594H54.9453C54.9453 288.043 54.8145 287.605 54.5527 287.281C54.291 286.957 53.9375 286.795 53.4922 286.795C53.0273 286.795 52.6719 286.916 52.4258 287.158C52.1797 287.396 52.0566 287.73 52.0566 288.16C52.0566 288.559 52.1855 288.877 52.4434 289.115C52.7051 289.35 53.1328 289.564 53.7266 289.76C54.3242 289.951 54.7891 290.164 55.1211 290.398C55.457 290.629 55.7031 290.898 55.8594 291.207C56.0195 291.516 56.0996 291.877 56.0996 292.291C56.0996 292.951 55.9004 293.482 55.502 293.885C55.1074 294.287 54.5527 294.525 53.8379 294.6V295.719H52.9707V294.6C52.2441 294.533 51.6738 294.275 51.2598 293.826C50.8496 293.373 50.6445 292.76 50.6445 291.986H51.7285C51.7285 292.529 51.8711 292.947 52.1562 293.24C52.4414 293.533 52.8457 293.68 53.3691 293.68C53.8809 293.68 54.2832 293.557 54.5762 293.311C54.8691 293.064 55.0156 292.729 55.0156 292.303ZM61.0098 294.5H59.9199V287.275L57.7344 288.078V287.094L60.8398 285.928H61.0098V294.5ZM65.9199 285.969L68.709 292.93L71.498 285.969H72.957V294.5H71.832V291.178L71.9375 287.592L69.1367 294.5H68.2754L65.4805 287.609L65.5918 291.178V294.5H64.4668V285.969H65.9199Z" fill="#333333"/>
</g>
<defs>
<filter id="filter0_d_5_5513" x="0" y="0.5" width="578" height="364" filterUnits="userSpaceOnUse" color-interpolation-filters="sRGB">
<feFlood flood-opacity="0" result="BackgroundImageFix"/>
<feColorMatrix in="SourceAlpha" type="matrix" values="0 0 0 0 0 0 0 0 0 0 0 0 0 0 0 0 0 0 127 0" result="hardAlpha"/>
<feOffset dy="4"/>
<feGaussianBlur stdDeviation="2"/>
<feComposite in2="hardAlpha" operator="out"/>
<feColorMatrix type="matrix" values="0 0 0 0 0 0 0 0 0 0 0 0 0 0 0 0 0 0 0.25 0"/>
<feBlend mode="normal" in2="BackgroundImageFix" result="effect1_dropShadow_5_5513"/>
<feBlend mode="normal" in="SourceGraphic" in2="effect1_dropShadow_5_5513" result="shape"/>
</filter>
<linearGradient id="paint0_linear_5_5513" x1="258.373" y1="56.5254" x2="258.373" y2="340.5" gradientUnits="userSpaceOnUse">
<stop stop-color="#75C696"/>
<stop offset="1" stop-color="#75C696" stop-opacity="0"/>
</linearGradient>
<clipPath id="clip0_5_5513">
<rect width="470" height="283.975" fill="white" transform="matrix(-1 0 0 1 574 56.5254)"/>
</clipPath>
<clipPath id="clip1_5_5513">
<rect width="470" height="284.109" fill="white" transform="matrix(-1 0 0 1 574 56.3906)"/>
</clipPath>
</defs>
</svg>
